<svg width="28" height="20" viewBox="0 0 28 20" fill="none" xmlns="http://www.w3.org/2000/svg">
<path fill-rule="evenodd" clip-rule="evenodd" d="M13.9985 0C6.26786 0 0 4.59029 0 10.2536C0 14.7833 4.01099 18.6261 9.57452 19.9824C10.2748 20.0763 10.5299 19.7597 10.5299 19.4875C10.5299 19.2447 10.5183 18.5997 10.5113 17.7442C6.61681 18.3637 5.79539 16.3696 5.79539 16.3696C5.15865 15.1856 4.24052 14.8703 4.24052 14.8703C2.96935 14.2338 4.33664 14.2466 4.33664 14.2466C5.7418 14.3195 6.48108 15.3034 6.48108 15.3034C7.7301 16.87 9.75803 16.4174 10.5556 16.1554C10.6831 15.4928 11.0438 15.041 11.4446 14.7846C8.33598 14.526 5.06718 13.6459 5.06718 9.7173C5.06718 8.59821 5.61305 7.68262 6.50846 6.96586C6.36456 6.70646 5.88394 5.66416 6.64536 4.25239C6.64536 4.25239 7.82099 3.97677 10.4956 5.30364C11.6123 5.07624 12.8101 4.96233 14.0003 4.95849C15.1893 4.96233 16.3871 5.07624 17.5056 5.30364C20.1784 3.97677 21.3517 4.25239 21.3517 4.25239C22.1155 5.66416 21.6349 6.70646 21.491 6.96586C22.3881 7.68262 22.9305 8.59821 22.9305 9.7173C22.9305 13.6561 19.6565 14.5226 16.5374 14.7765C17.0407 15.093 17.4881 15.7185 17.4881 16.6755C17.4881 18.0459 17.4712 19.1517 17.4712 19.4875C17.4712 19.7623 17.7229 20.0814 18.4336 19.9811C23.9925 18.6223 28 14.782 28 10.2536C28 4.59029 21.7316 0 13.9985 0" fill="#010101"/>
</svg>
