<svg width="12" height="12" viewBox="0 0 12 12" fill="none" xmlns="http://www.w3.org/2000/svg">
<g clip-path="url(#clip0_203_17)">
<path d="M6.00001 12C5.91503 12.0004 5.8308 11.984 5.75214 11.9519C5.67348 11.9197 5.60193 11.8723 5.54157 11.8125L2.45907 8.73C1.97238 8.24598 1.58712 7.66975 1.32586 7.03502C1.06459 6.40029 0.932569 5.71981 0.937512 5.03343C0.935415 4.36888 1.06592 3.71059 1.3214 3.09711C1.57687 2.48362 1.95217 1.92727 2.42532 1.46062C3.38094 0.526905 4.66396 0.00415039 6.00001 0.00415039C7.33606 0.00415039 8.61908 0.526905 9.5747 1.46062V1.46062C10.0479 1.92727 10.4232 2.48362 10.6786 3.09711C10.9341 3.71059 11.0646 4.36888 11.0625 5.03343C11.0675 5.71981 10.9354 6.40029 10.6742 7.03502C10.4129 7.66975 10.0276 8.24598 9.54095 8.73L6.45845 11.8069C6.39856 11.8677 6.32722 11.9161 6.24854 11.9493C6.16985 11.9824 6.08539 11.9997 6.00001 12V12ZM6.00001 0.562496C4.8104 0.559757 3.66772 1.02633 2.82001 1.86093C2.40005 2.27556 2.06699 2.76979 1.84034 3.31469C1.61369 3.85959 1.49799 4.44422 1.50001 5.03437C1.49551 5.64655 1.61317 6.25349 1.8461 6.81964C2.07904 7.38579 2.42256 7.89979 2.85657 8.33156L5.93814 11.4084C5.94609 11.4167 5.95563 11.4232 5.96618 11.4277C5.97673 11.4322 5.98808 11.4345 5.99954 11.4345C6.01101 11.4345 6.02235 11.4322 6.0329 11.4277C6.04345 11.4232 6.05299 11.4167 6.06095 11.4084L9.14345 8.33156C9.57746 7.89979 9.92099 7.38579 10.1539 6.81964C10.3869 6.25349 10.5045 5.64655 10.5 5.03437C10.502 4.44422 10.3863 3.85959 10.1597 3.31469C9.93303 2.76979 9.59998 2.27556 9.18001 1.86093V1.86093C8.3323 1.02633 7.18962 0.559757 6.00001 0.562496V0.562496Z" fill="black"/>
<path d="M6 7.63219C5.40912 7.63191 4.8366 7.42682 4.37995 7.05184C3.9233 6.67685 3.61075 6.15517 3.49554 5.57563C3.38033 4.99608 3.46957 4.39452 3.74807 3.87339C4.02658 3.35226 4.47712 2.94378 5.02297 2.71752C5.56881 2.49126 6.17621 2.46122 6.74173 2.6325C7.30724 2.80378 7.7959 3.1658 8.12447 3.6569C8.45305 4.148 8.60123 4.73781 8.54378 5.3259C8.48632 5.91398 8.22679 6.46397 7.80938 6.88219C7.57201 7.12016 7.28998 7.30892 6.97948 7.43762C6.66898 7.56633 6.33612 7.63245 6 7.63219ZM6 3.08625C5.53898 3.08698 5.09247 3.24751 4.73652 3.5405C4.38057 3.83348 4.13719 4.24081 4.04784 4.69309C3.95849 5.14537 4.02869 5.61464 4.24649 6.02097C4.46429 6.42731 4.81621 6.74557 5.24232 6.92156C5.66843 7.09755 6.14238 7.12038 6.58343 6.98616C7.02448 6.85195 7.40537 6.56898 7.66122 6.18546C7.91706 5.80195 8.03205 5.3416 7.98658 4.88282C7.94112 4.42405 7.73802 3.99522 7.41188 3.66937V3.66937C7.22648 3.48407 7.00633 3.33718 6.76405 3.23711C6.52177 3.13705 6.26213 3.08578 6 3.08625Z" fill="black"/>
</g>
<defs>
<clipPath id="clip0_203_17">
<rect width="12" height="12" fill="white"/>
</clipPath>
</defs>
</svg>
