<svg width="81" height="35" viewBox="0 0 81 35" fill="none" xmlns="http://www.w3.org/2000/svg">
<g clip-path="url(#clip0_215_380)">
<path d="M41.8187 11.5928L45.6724 11.303C45.7603 12.036 45.9215 12.5816 46.1852 12.9737C46.6102 13.5874 47.1963 13.8943 47.9729 13.8943C48.5443 13.8943 48.9986 13.7409 49.3063 13.417C49.5993 13.1612 49.7752 12.7521 49.7752 12.3259C49.7752 11.9167 49.614 11.5246 49.3356 11.2689C49.0425 10.962 48.3538 10.6551 47.2695 10.3824C45.4966 9.92207 44.2218 9.30833 43.4745 8.52411C42.7272 7.79104 42.3023 6.717 42.3316 5.57477C42.3316 4.79055 42.5367 4.00633 42.9177 3.3585C43.3573 2.62543 43.958 2.04579 44.676 1.72187C45.4526 1.32976 46.5369 1.12518 47.8996 1.12518C49.57 1.12518 50.8448 1.4832 51.724 2.21627C52.6031 2.93229 53.1306 4.09157 53.2918 5.67706L49.4821 5.93278C49.3795 5.25085 49.1744 4.75645 48.8374 4.43254C48.5004 4.10862 48.0608 3.95519 47.4893 3.95519C47.0204 3.95519 46.6688 4.07453 46.4343 4.29615C46.2145 4.50073 46.068 4.8076 46.0827 5.14856C46.0827 5.40429 46.1999 5.64296 46.3757 5.7964C46.5662 6.00097 47.0204 6.18851 47.7384 6.35899C49.5114 6.80224 50.7715 7.2455 51.5481 7.7058C52.3247 8.1661 52.8815 8.72869 53.2185 9.39357C53.5702 10.0755 53.746 10.8597 53.7314 11.661C53.7314 12.6157 53.4969 13.5704 53.028 14.3717C52.5445 15.207 51.8705 15.8548 51.0792 16.247C50.244 16.6732 49.189 16.8948 47.9289 16.8948C45.7017 16.8948 44.1632 16.4004 43.2987 15.3945C42.4342 14.3887 41.9213 13.1271 41.8187 11.5928ZM0.923119 16.6391V1.39795H7.678C8.92348 1.39795 9.89056 1.51729 10.5499 1.77302C11.1946 2.01169 11.7661 2.50609 12.1471 3.17097C12.572 3.90404 12.7771 4.75645 12.7625 5.64296C12.8064 7.14321 12.1471 8.57526 11.0188 9.32538C10.5792 9.6152 10.0957 9.81978 9.5975 9.92207C9.96382 10.0414 10.3301 10.246 10.6525 10.4847C10.9016 10.7233 11.1067 10.9961 11.2972 11.2859C11.517 11.5757 11.7075 11.8997 11.8687 12.2406L13.8321 16.6561H9.23119L7.06259 11.9679C6.78419 11.3712 6.54975 10.9791 6.32996 10.7915C6.0369 10.5529 5.68524 10.4335 5.33358 10.4335H4.98191V16.622H0.923119V16.6391ZM4.98191 7.56941H6.69627C7.06259 7.53532 7.41426 7.46712 7.76592 7.36483C8.02967 7.31369 8.26411 7.14321 8.42529 6.88748C8.82091 6.27375 8.7623 5.40429 8.27876 4.87579C8.01502 4.62007 7.50217 4.48368 6.76954 4.48368H4.98191V7.56941ZM0 29.698L3.85365 29.4082C3.94157 30.1413 4.10275 30.6868 4.3665 31.0789C4.77677 31.6926 5.37753 32.0166 6.15412 32.0166C6.72558 32.0166 7.17981 31.8631 7.48752 31.5392C7.78057 31.2664 7.9564 30.8743 7.9564 30.4481C7.9564 30.039 7.79522 29.6469 7.51682 29.3911C7.22377 29.0843 6.53509 28.7774 5.43614 28.5046C3.66317 28.0443 2.38839 27.4306 1.6411 26.6464C0.893813 25.9133 0.468886 24.8393 0.498191 23.697C0.498191 22.9128 0.703329 22.1286 1.0843 21.4808C1.52388 20.7477 2.12464 20.168 2.84262 19.8441C3.61921 19.452 4.70351 19.2474 6.06621 19.2474C7.73661 19.2474 9.0114 19.6055 9.89056 20.3385C10.7697 21.0716 11.2826 22.2138 11.4437 23.7993L7.63405 24.055C7.53148 23.3731 7.32634 22.8787 6.98933 22.5548C6.66697 22.2309 6.21274 22.0775 5.64128 22.0945C5.1724 22.0945 4.82073 22.2138 4.58629 22.4525C4.35185 22.6571 4.21997 22.964 4.23462 23.3049C4.23462 23.5606 4.35185 23.7993 4.52768 23.9528C4.71816 24.1573 5.1724 24.3449 5.89038 24.5153C7.66335 24.9586 8.92348 25.4019 9.70007 25.8622C10.4767 26.3225 11.0335 26.885 11.3705 27.5499C11.7221 28.2319 11.898 29.0161 11.898 29.8003C11.898 30.755 11.6489 31.6926 11.1946 32.4939C10.7111 33.3293 10.0371 33.9771 9.24584 34.3692C8.41064 34.7954 7.35564 35.017 6.09551 35.017C3.86831 35.017 2.32978 34.5227 1.46527 33.5168C0.60076 32.4939 0.117221 31.2323 0 29.698H0Z" fill="black"/>
<path d="M19.4881 28.5046L23.034 29.7491C22.8435 30.7891 22.4479 31.7779 21.9058 32.6473C21.4076 33.4145 20.7482 34.0112 20.0009 34.4033C19.239 34.7954 18.2719 35 17.0997 35C15.6784 35 14.5062 34.7613 13.6123 34.284C12.7039 33.8066 11.9273 32.9542 11.2679 31.7438C10.6085 30.5334 10.2862 28.982 10.2862 27.0896C10.2862 24.5665 10.8576 22.623 12.0152 21.2762C13.1728 19.9294 14.7992 19.2474 16.9092 19.2474C18.5649 19.2474 19.8544 19.6395 20.8068 20.4067C21.7446 21.1909 22.4479 22.3843 22.9168 23.9868L19.3415 24.9074C19.2536 24.5494 19.1217 24.1914 18.9459 23.8846C18.7261 23.5265 18.4477 23.2538 18.1107 23.0492C17.7737 22.8446 17.3927 22.7594 17.0118 22.7594C16.0886 22.7594 15.3853 23.1856 14.9018 24.055C14.5355 24.6858 14.345 25.6917 14.345 27.0555C14.345 28.7433 14.5648 29.9026 15.0043 30.5334C15.4439 31.1641 16.0593 31.471 16.8652 31.471C17.6418 31.471 18.2279 31.2153 18.6236 30.7209C19.0192 30.1924 19.3122 29.4593 19.4881 28.5046ZM27.7668 19.5032H31.811V24.8393H36.2361V19.5032H40.3095V34.7443H36.2361V28.5728H31.811V34.7443H27.7668V19.5032V19.5032Z" fill="black"/>
<path d="M39.7527 27.1237C39.7527 24.6347 40.3535 22.6912 41.5403 21.3103C42.7272 19.9294 44.3976 19.2304 46.5223 19.2304C48.7055 19.2304 50.3759 19.9123 51.5628 21.2762C52.7496 22.6401 53.3358 24.5495 53.3358 27.0044C53.3358 28.7945 53.072 30.2436 52.5592 31.3858C52.061 32.511 51.2844 33.4316 50.332 34.0453C49.3502 34.6761 48.1341 35 46.6834 35C45.2035 35 43.9873 34.7272 43.0203 34.1817C42.0239 33.6021 41.2033 32.6985 40.6612 31.5904C40.0604 30.397 39.7527 28.9138 39.7527 27.1237ZM43.7969 27.1408C43.7969 28.6751 44.046 29.7833 44.5295 30.4652C45.013 31.1301 45.6871 31.471 46.5369 31.471C47.4014 31.471 48.0754 31.1471 48.559 30.4822C49.0425 29.8174 49.277 28.641 49.277 26.9362C49.277 25.5042 49.0279 24.4472 48.5297 23.7993C48.0315 23.1345 47.3575 22.8105 46.5076 22.8105C45.7603 22.7764 45.0423 23.1515 44.5441 23.8164C44.046 24.4813 43.7969 25.5894 43.7969 27.1408V27.1408ZM57.4825 27.1237C57.4825 24.6347 58.0832 22.6912 59.2701 21.3103C60.457 19.9294 62.1274 19.2304 64.252 19.2304C66.4352 19.2304 68.1203 19.9123 69.2925 21.2762C70.4647 22.6401 71.0655 24.5495 71.0655 27.0044C71.0655 28.7945 70.8017 30.2436 70.2889 31.3858C69.7907 32.511 69.0141 33.4316 68.0617 34.0453C67.08 34.6761 65.8638 35 64.4132 35C62.9333 35 61.7171 34.7272 60.75 34.1817C59.7536 33.6021 58.9331 32.6985 58.3909 31.5904C57.7902 30.397 57.4825 28.9138 57.4825 27.1237V27.1237ZM61.5266 27.1408C61.5266 28.6751 61.7757 29.7833 62.2592 30.4652C62.7428 31.1301 63.4168 31.471 64.2666 31.471C65.1312 31.471 65.8052 31.1471 66.2887 30.4822C66.7723 29.8174 67.0067 28.641 67.0067 26.9362C67.0067 25.5042 66.7576 24.4472 66.2594 23.7993C65.7612 23.1345 65.0872 22.8105 64.2373 22.8105C63.4901 22.7764 62.7574 23.1515 62.2739 23.8164C61.7757 24.4813 61.5266 25.5894 61.5266 27.1408V27.1408Z" fill="black"/>
<path d="M70.6406 19.5032H74.6847V30.9937H81V34.7443H70.6259V19.5032H70.6406Z" fill="black"/>
<path d="M66.183 18.6236C70.2546 15.0537 71.5101 9.00214 68.9873 5.10708C66.4645 1.21201 61.1187 0.948409 57.0472 4.51831C52.9756 8.0882 51.72 14.1398 54.2428 18.0348C56.7656 21.9299 62.1114 22.1935 66.183 18.6236Z" fill="white"/>
<path d="M43.8591 9.63916L64.8993 -8.80853L79.4585 13.6701L58.4183 32.1177L43.8591 9.63916Z" fill="white"/>
<path d="M66.183 18.6236C70.2546 15.0537 71.5101 9.00214 68.9873 5.10708C66.4645 1.21201 61.1187 0.948409 57.0472 4.51831C52.9756 8.0882 51.72 14.1398 54.2428 18.0348C56.7656 21.9299 62.1114 22.1935 66.183 18.6236Z" fill="white"/>
<path d="M49.7181 11.1401L64.4511 -1.77705L73.5955 12.342L58.8625 25.2592L49.7181 11.1401Z" fill="white"/>
<path d="M66.183 18.6236C70.2546 15.0537 71.5101 9.00214 68.9873 5.10708C66.4645 1.21201 61.1187 0.948409 57.0472 4.51831C52.9756 8.0882 51.72 14.1398 54.2428 18.0348C56.7656 21.9299 62.1114 22.1935 66.183 18.6236Z" fill="white" stroke="black" stroke-width="4" stroke-miterlimit="10"/>
<path d="M49.7181 11.1401L64.4511 -1.77705L73.5955 12.342L58.8625 25.2592L49.7181 11.1401Z" stroke="black" stroke-width="4" stroke-miterlimit="10"/>
<path d="M66.183 18.6236C70.2546 15.0537 71.5101 9.00214 68.9873 5.10708C66.4645 1.21201 61.1187 0.948409 57.0472 4.51831C52.9756 8.0882 51.72 14.1398 54.2428 18.0348C56.7656 21.9299 62.1114 22.1935 66.183 18.6236Z" stroke="black" stroke-width="4" stroke-miterlimit="10"/>
<path d="M49.7181 11.1401L64.4511 -1.77705L73.5955 12.342L58.8625 25.2592L49.7181 11.1401Z" fill="white"/>
<path d="M66.183 18.6236C70.2546 15.0537 71.5101 9.00214 68.9873 5.10708C66.4645 1.21201 61.1187 0.948409 57.0472 4.51831C52.9756 8.0882 51.72 14.1398 54.2428 18.0348C56.7656 21.9299 62.1114 22.1935 66.183 18.6236Z" fill="white" stroke="black" stroke-width="4" stroke-miterlimit="10"/>
<path d="M49.7181 11.1401L64.4511 -1.77705L73.5955 12.342L58.8625 25.2592L49.7181 11.1401Z" stroke="black" stroke-width="4" stroke-miterlimit="10"/>
<path d="M43.8591 9.63916L64.8993 -8.80853L79.4585 13.6701L58.4183 32.1177L43.8591 9.63916Z" stroke="black" stroke-width="4" stroke-miterlimit="10"/>
<path d="M66.183 18.6236C70.2546 15.0537 71.5101 9.00214 68.9873 5.10708C66.4645 1.21201 61.1187 0.948409 57.0472 4.51831C52.9756 8.0882 51.72 14.1398 54.2428 18.0348C56.7656 21.9299 62.1114 22.1935 66.183 18.6236Z" stroke="black" stroke-width="4" stroke-miterlimit="10"/>
<path d="M57.4971 10.4506L58.9624 9.25719L60.7646 12.2406C61.0724 12.718 61.3068 13.2294 61.4826 13.792C61.5852 14.2182 61.5559 14.6785 61.4094 15.0877C61.2189 15.5991 60.9112 16.0253 60.5009 16.3322C60.0174 16.7243 59.6071 16.9459 59.2554 17.0141C58.9184 17.0823 58.5667 17.0141 58.2444 16.8436C57.8927 16.6391 57.585 16.3492 57.3506 15.9742L58.6107 14.6103C58.7133 14.7979 58.8451 14.9683 58.9917 15.1047C59.0942 15.19 59.2115 15.2411 59.3433 15.2411C59.4459 15.2411 59.5485 15.19 59.6217 15.1218C59.7683 15.0195 59.8708 14.8149 59.8562 14.6103C59.8122 14.3205 59.7097 14.0307 59.5485 13.8091L57.4971 10.4506V10.4506ZM61.8929 12.3429L63.2263 11.1154C63.3728 11.32 63.5633 11.4735 63.7684 11.5587C64.0615 11.661 64.3692 11.5928 64.6183 11.3712C64.7941 11.2348 64.9407 11.0473 64.9993 10.8086C65.0872 10.5017 64.9407 10.1607 64.6769 10.0585C64.633 10.0414 64.589 10.0244 64.545 10.0244C64.3692 10.0073 64.0615 10.0926 63.6073 10.3142C62.86 10.6722 62.2739 10.8086 61.8343 10.7574C61.4094 10.7063 61.0137 10.4506 60.7793 10.0244C60.6035 9.73454 60.5155 9.39358 60.5009 9.05261C60.5009 8.6605 60.5888 8.26839 60.7793 7.94448C61.0577 7.48417 61.3947 7.09207 61.805 6.7852C62.4204 6.2908 62.9625 6.05212 63.4314 6.05212C63.9003 6.05212 64.3399 6.30785 64.7502 6.83634L63.4314 8.04677C63.1677 7.65466 62.6695 7.56942 62.3325 7.87628L62.2885 7.92743C62.142 8.02972 62.0394 8.18315 61.9808 8.37068C61.9369 8.50707 61.9662 8.6605 62.0394 8.77984C62.098 8.86508 62.186 8.93327 62.2885 8.93327C62.4057 8.95032 62.6109 8.88213 62.9039 8.72869C63.6366 8.37068 64.1934 8.1661 64.5743 8.09791C64.8967 8.02972 65.2337 8.06381 65.5414 8.21725C65.8198 8.35363 66.0543 8.59231 66.2154 8.88213C66.4206 9.22309 66.5378 9.63225 66.5525 10.0585C66.5671 10.5017 66.4645 10.9279 66.2594 11.303C65.9957 11.7633 65.6586 12.1554 65.263 12.4623C64.4571 13.1101 63.7977 13.3829 63.2703 13.2806C62.6988 13.1783 62.2299 12.8373 61.8929 12.3429V12.3429Z" fill="black"/>
</g>
<defs>
<clipPath id="clip0_215_380">
<rect width="81" height="35" fill="white"/>
</clipPath>
</defs>
</svg>
