<svg width="12" height="12" viewBox="0 0 12 12" fill="none" xmlns="http://www.w3.org/2000/svg">
<g clip-path="url(#clip0_203_13)">
<path d="M8.80026 3.62233C8.66419 3.51272 8.48089 3.51083 8.44687 3.51083C8.19175 3.51461 7.89506 3.61288 6.15459 4.33666C5.57821 4.57666 4.40845 5.07934 2.67931 5.83335C2.31648 5.97887 2.14451 6.12627 2.12183 6.31335C2.08026 6.65162 2.42797 6.76123 2.76624 6.86705L2.89475 6.90863C3.14986 6.99178 3.61664 7.13162 3.87553 7.13729C4.10797 7.13729 4.36309 7.05036 4.63144 6.86705C5.55175 6.24532 6.13758 5.85414 6.50608 5.61036C6.21128 5.89194 5.86734 6.2132 5.68593 6.38139C5.53852 6.51745 5.43459 6.61572 5.41191 6.63839C5.36656 6.68564 5.3212 6.7291 5.27774 6.77257C5.08498 6.95776 4.90545 7.13162 4.92624 7.3754C4.94703 7.60784 5.15868 7.77225 5.31553 7.87619C5.55742 8.03493 5.75018 8.16721 5.94482 8.29949C6.15837 8.44501 6.37002 8.59052 6.64593 8.77005C6.71396 8.8154 6.77821 8.86076 6.84057 8.90611C7.08057 9.07619 7.32624 9.25194 7.63427 9.25194C7.65884 9.25194 7.68341 9.25005 7.70986 9.24816C7.91018 9.22926 8.17286 9.08186 8.28624 8.48469C8.47711 7.46611 8.87018 5.1606 8.96278 4.18359C8.97412 4.07398 8.959 3.94926 8.95144 3.89824C8.94388 3.85477 8.9212 3.7206 8.80026 3.62233ZM8.5886 4.14579C8.4979 5.09824 8.09915 7.43209 7.91585 8.41288C7.85538 8.73981 7.75333 8.86264 7.67774 8.8702C7.47364 8.8891 7.29223 8.7606 7.06167 8.59619C6.99553 8.54894 6.92561 8.49981 6.8538 8.45257C6.57978 8.27304 6.37002 8.12942 6.15837 7.98579C5.96372 7.85351 5.76908 7.72123 5.5253 7.5606C5.3212 7.42642 5.30608 7.35461 5.30419 7.3395C5.29852 7.27713 5.4327 7.14674 5.54041 7.0428C5.58766 6.99745 5.63679 6.9502 5.68593 6.89918C5.70671 6.87839 5.80498 6.78579 5.94482 6.65729C7.279 5.41761 7.3527 5.308 7.37727 5.20784C7.39238 5.1417 7.39238 5.00753 7.29034 4.91871C7.22986 4.8639 7.15994 4.85068 7.10325 4.85068C7.0579 4.85068 7.02199 4.86013 6.99931 4.8639C6.94073 4.87713 6.88593 4.89036 4.42167 6.55335C4.21758 6.6932 4.03805 6.7669 3.88687 6.75934C3.73569 6.75556 3.40876 6.67808 3.01569 6.54957L2.88341 6.508C2.74545 6.46453 2.56215 6.40784 2.50734 6.3606C2.53191 6.33414 2.60561 6.27178 2.82671 6.18485L2.83238 6.18296C4.56152 5.42894 5.72939 4.92627 6.30388 4.68816C7.83648 4.05131 8.25789 3.89446 8.45821 3.89068C8.49412 3.88501 8.54703 3.90201 8.56593 3.91713C8.5716 3.9228 8.57726 3.93036 8.58293 3.96438C8.58482 3.9965 8.59427 4.08532 8.5886 4.14579Z" fill="black"/>
<path d="M6.04687 0.046875C2.7379 0.046875 0.046875 2.7379 0.046875 6.04687C0.046875 9.35585 2.7379 12.0469 6.04687 12.0469C9.35585 12.0469 12.0469 9.35585 12.0469 6.04687C12.0469 2.7379 9.35585 0.046875 6.04687 0.046875ZM6.04687 11.6689C2.94766 11.6689 0.424828 9.14609 0.424828 6.04687C0.424828 2.94766 2.94766 0.424828 6.04687 0.424828C9.14609 0.424828 11.6689 2.94766 11.6689 6.04687C11.6689 9.14609 9.14609 11.6689 6.04687 11.6689Z" fill="black"/>
</g>
<defs>
<clipPath id="clip0_203_13">
<rect width="12" height="12" fill="white"/>
</clipPath>
</defs>
</svg>
